<svg xmlns="http://www.w3.org/2000/svg" width="40" height="40" viewBox="0 0 24 24" fill="none" stroke="rgba(204, 204, 204, 1)" stroke-width="2" stroke-linecap="round" stroke-linejoin="round" class="feather feather-twitter"><path d="M23 3a10.9 10.9 0 0 1-3.14 1.53A4.48 4.48 0 0 0 22.4 1a9.19 9.19 0 0 1-2.89 1.11A4.48 4.48 0 0 0 16 0a4.48 4.48 0 0 0-4.47 4.47c0 .35.04.69.1 1.02A12.78 12.78 0 0 1 1.64.88a4.48 4.48 0 0 0-.61 2.25c0 1.55.79 2.92 2 3.73a4.48 4.48 0 0 1-2.03-.56v.06a4.48 4.48 0 0 0 3.57 4.4A4.52 4.52 0 0 1 2 11.54v.06a4.48 4.48 0 0 0 3.57 4.4A4.48 4.48 0 0 1 3.9 16v.06a4.48 4.48 0 0 0 4.2 3.12A9 9 0 0 1 1 20.85a12.75 12.75 0 0 0 6.92 2.03A12.78 12.78 0 0 0 12 23c7.64 0 11.82-6.33 11.82-11.82 0-.18 0-.36-.01-.54A8.35 8.35 0 0 0 24 8.32a8.48 8.48 0 0 1-2.36.64 4.48 4.48 0 0 0 1.97-2.47z"></path></svg>
